<?xml version="1.0" encoding="UTF-8" standalone="no"?>
<!DOCTYPE svg PUBLIC "-//W3C//DTD SVG 1.1//EN"
 "http://www.w3.org/Graphics/SVG/1.1/DTD/svg11.dtd">
<!-- Generated by graphviz version 2.40.1 (20161225.0304)
 -->
<!-- Title: dependencies Pages: 1 -->
<svg width="617pt" height="284pt"
 viewBox="0.00 0.00 617.00 284.00" xmlns="http://www.w3.org/2000/svg" xmlns:xlink="http://www.w3.org/1999/xlink">
<g id="graph0" class="graph" transform="scale(1 1) rotate(0) translate(4 280)">
<title>dependencies</title>
<polygon fill="#ffffff" stroke="transparent" points="-4,4 -4,-280 613,-280 613,4 -4,4"/>
<text text-anchor="start" x="283.5091" y="-42.4" font-family="sans-serif" font-weight="bold" font-size="14.00" fill="#000000">Legend</text>
<polygon fill="#ffffb3" stroke="transparent" points="70.5,-10 70.5,-30 90.5,-30 90.5,-10 70.5,-10"/>
<text text-anchor="start" x="94.129" y="-15.4" font-family="sans-serif" font-size="14.00" fill="#000000"> &#160;Declarations</text>
<polygon fill="#8dd3c7" stroke="transparent" points="183.5,-10 183.5,-30 203.5,-30 203.5,-10 183.5,-10"/>
<text text-anchor="start" x="207.2251" y="-15.4" font-family="sans-serif" font-size="14.00" fill="#000000"> &#160;Module</text>
<polygon fill="#80b1d3" stroke="transparent" points="269.5,-10 269.5,-30 289.5,-30 289.5,-10 269.5,-10"/>
<text text-anchor="start" x="293.2812" y="-15.4" font-family="sans-serif" font-size="14.00" fill="#000000"> &#160;Bootstrap</text>
<polygon fill="#fdb462" stroke="transparent" points="366.5,-10 366.5,-30 386.5,-30 386.5,-10 366.5,-10"/>
<text text-anchor="start" x="390.1732" y="-15.4" font-family="sans-serif" font-size="14.00" fill="#000000"> &#160;Providers</text>
<polygon fill="#fb8072" stroke="transparent" points="462.5,-10 462.5,-30 482.5,-30 482.5,-10 462.5,-10"/>
<text text-anchor="start" x="486.2258" y="-15.4" font-family="sans-serif" font-size="14.00" fill="#000000"> &#160;Exports</text>
<g id="clust1" class="cluster">
<title>cluster_SharedModule</title>
<polygon fill="none" stroke="#000000" stroke-dasharray="1,5" points="8,-70 8,-268 601,-268 601,-70 8,-70"/>
</g>
<g id="clust2" class="cluster">
<title>cluster_SharedModule_declarations</title>
<polygon fill="none" stroke="#000000" points="25,-78 25,-130 587,-130 587,-78 25,-78"/>
</g>
<g id="clust8" class="cluster">
<title>cluster_SharedModule_exports</title>
<polygon fill="none" stroke="#000000" points="16,-208 16,-260 593,-260 593,-208 16,-208"/>
</g>
<!-- HeaderComponent -->
<g id="node1" class="node">
<title>HeaderComponent</title>
<polygon fill="#ffffb3" stroke="#000000" points="578.7437,-122 457.2563,-122 457.2563,-86 578.7437,-86 578.7437,-122"/>
<text text-anchor="middle" x="518" y="-99.8" font-family="Times,serif" font-size="14.00" fill="#000000">HeaderComponent</text>
</g>
<!-- SharedModule -->
<g id="node5" class="node">
<title>SharedModule</title>
<polygon fill="#8dd3c7" stroke="#000000" points="286.4231,-187 283.4231,-191 262.4231,-191 259.4231,-187 187.5769,-187 187.5769,-151 286.4231,-151 286.4231,-187"/>
<text text-anchor="middle" x="237" y="-164.8" font-family="Times,serif" font-size="14.00" fill="#000000">SharedModule</text>
</g>
<!-- HeaderComponent&#45;&gt;SharedModule -->
<g id="edge1" class="edge">
<title>HeaderComponent&#45;&gt;SharedModule</title>
<path fill="none" stroke="#000000" d="M539.0406,-122.2667C539.0406,-140.5552 539.0406,-166 539.0406,-166 539.0406,-166 296.5376,-166 296.5376,-166"/>
<polygon fill="#000000" stroke="#000000" points="296.5377,-162.5001 286.5376,-166 296.5376,-169.5001 296.5377,-162.5001"/>
</g>
<!-- LandingComponent -->
<g id="node2" class="node">
<title>LandingComponent</title>
<polygon fill="#ffffb3" stroke="#000000" points="438.9902,-122 311.0098,-122 311.0098,-86 438.9902,-86 438.9902,-122"/>
<text text-anchor="middle" x="375" y="-99.8" font-family="Times,serif" font-size="14.00" fill="#000000">LandingComponent</text>
</g>
<!-- LandingComponent&#45;&gt;SharedModule -->
<g id="edge2" class="edge">
<title>LandingComponent&#45;&gt;SharedModule</title>
<path fill="none" stroke="#000000" d="M396.3317,-122.0091C396.3317,-138.0494 396.3317,-159 396.3317,-159 396.3317,-159 296.5402,-159 296.5402,-159"/>
<polygon fill="#000000" stroke="#000000" points="296.5402,-155.5001 286.5402,-159 296.5401,-162.5001 296.5402,-155.5001"/>
</g>
<!-- SignInComponent -->
<g id="node3" class="node">
<title>SignInComponent</title>
<polygon fill="#ffffb3" stroke="#000000" points="293.1667,-122 174.8333,-122 174.8333,-86 293.1667,-86 293.1667,-122"/>
<text text-anchor="middle" x="234" y="-99.8" font-family="Times,serif" font-size="14.00" fill="#000000">SignInComponent</text>
</g>
<!-- SignInComponent&#45;&gt;SharedModule -->
<g id="edge3" class="edge">
<title>SignInComponent&#45;&gt;SharedModule</title>
<path fill="none" stroke="#000000" d="M237,-122.1061C237,-122.1061 237,-140.991 237,-140.991"/>
<polygon fill="#000000" stroke="#000000" points="233.5001,-140.9909 237,-150.991 240.5001,-140.991 233.5001,-140.9909"/>
</g>
<!-- SignUpComponent -->
<g id="node4" class="node">
<title>SignUpComponent</title>
<polygon fill="#ffffb3" stroke="#000000" points="157.1123,-122 32.8877,-122 32.8877,-86 157.1123,-86 157.1123,-122"/>
<text text-anchor="middle" x="95" y="-99.8" font-family="Times,serif" font-size="14.00" fill="#000000">SignUpComponent</text>
</g>
<!-- SignUpComponent&#45;&gt;SharedModule -->
<g id="edge4" class="edge">
<title>SignUpComponent&#45;&gt;SharedModule</title>
<path fill="none" stroke="#000000" d="M112.1854,-122.0225C112.1854,-139.3734 112.1854,-163 112.1854,-163 112.1854,-163 177.67,-163 177.67,-163"/>
<polygon fill="#000000" stroke="#000000" points="177.67,-166.5001 187.67,-163 177.6699,-159.5001 177.67,-166.5001"/>
</g>
<!-- HeaderComponent  -->
<g id="node6" class="node">
<title>HeaderComponent </title>
<polygon fill="#fb8072" stroke="#000000" points="584.7436,-252 459.2564,-252 459.2564,-216 584.7436,-216 584.7436,-252"/>
<text text-anchor="middle" x="522" y="-229.8" font-family="Times,serif" font-size="14.00" fill="#000000">HeaderComponent </text>
</g>
<!-- SharedModule&#45;&gt;HeaderComponent  -->
<g id="edge5" class="edge">
<title>SharedModule&#45;&gt;HeaderComponent </title>
<path fill="none" stroke="#000000" stroke-dasharray="5,2" d="M286.3196,-173C362.2753,-173 499.2094,-173 499.2094,-173 499.2094,-173 499.2094,-205.698 499.2094,-205.698"/>
<polygon fill="#000000" stroke="#000000" points="495.7095,-205.698 499.2094,-215.698 502.7095,-205.698 495.7095,-205.698"/>
</g>
<!-- LandingComponent  -->
<g id="node7" class="node">
<title>LandingComponent </title>
<polygon fill="#fb8072" stroke="#000000" points="441.9911,-252 310.0089,-252 310.0089,-216 441.9911,-216 441.9911,-252"/>
<text text-anchor="middle" x="376" y="-229.8" font-family="Times,serif" font-size="14.00" fill="#000000">LandingComponent </text>
</g>
<!-- SharedModule&#45;&gt;LandingComponent  -->
<g id="edge6" class="edge">
<title>SharedModule&#45;&gt;LandingComponent </title>
<path fill="none" stroke="#000000" stroke-dasharray="5,2" d="M286.4779,-180C318.2758,-180 353.6683,-180 353.6683,-180 353.6683,-180 353.6683,-205.7181 353.6683,-205.7181"/>
<polygon fill="#000000" stroke="#000000" points="350.1684,-205.718 353.6683,-215.7181 357.1684,-205.7181 350.1684,-205.718"/>
</g>
<!-- SignInComponent  -->
<g id="node8" class="node">
<title>SignInComponent </title>
<polygon fill="#fb8072" stroke="#000000" points="292.1663,-252 169.8337,-252 169.8337,-216 292.1663,-216 292.1663,-252"/>
<text text-anchor="middle" x="231" y="-229.8" font-family="Times,serif" font-size="14.00" fill="#000000">SignInComponent </text>
</g>
<!-- SharedModule&#45;&gt;SignInComponent  -->
<g id="edge7" class="edge">
<title>SharedModule&#45;&gt;SignInComponent </title>
<path fill="none" stroke="#000000" stroke-dasharray="5,2" d="M237,-187.1061C237,-187.1061 237,-205.991 237,-205.991"/>
<polygon fill="#000000" stroke="#000000" points="233.5001,-205.9909 237,-215.991 240.5001,-205.991 233.5001,-205.9909"/>
</g>
<!-- SignUpComponent  -->
<g id="node9" class="node">
<title>SignUpComponent </title>
<polygon fill="#fb8072" stroke="#000000" points="151.6128,-252 24.3872,-252 24.3872,-216 151.6128,-216 151.6128,-252"/>
<text text-anchor="middle" x="88" y="-229.8" font-family="Times,serif" font-size="14.00" fill="#000000">SignUpComponent </text>
</g>
<!-- SharedModule&#45;&gt;SignUpComponent  -->
<g id="edge8" class="edge">
<title>SharedModule&#45;&gt;SignUpComponent </title>
<path fill="none" stroke="#000000" stroke-dasharray="5,2" d="M187.664,-175C139.2285,-175 72.5646,-175 72.5646,-175 72.5646,-175 72.5646,-205.9775 72.5646,-205.9775"/>
<polygon fill="#000000" stroke="#000000" points="69.0647,-205.9774 72.5646,-215.9775 76.0647,-205.9775 69.0647,-205.9774"/>
</g>
</g>
</svg>
