<?xml version="1.0" encoding="UTF-8" standalone="no"?>
<!DOCTYPE svg PUBLIC "-//W3C//DTD SVG 1.1//EN"
 "http://www.w3.org/Graphics/SVG/1.1/DTD/svg11.dtd">
<!-- Generated by graphviz version 2.40.1 (20161225.0304)
 -->
<!-- Title: dependencies Pages: 1 -->
<svg width="3052pt" height="284pt"
 viewBox="0.00 0.00 3052.00 284.00" xmlns="http://www.w3.org/2000/svg" xmlns:xlink="http://www.w3.org/1999/xlink">
<g id="graph0" class="graph" transform="scale(1 1) rotate(0) translate(4 280)">
<title>dependencies</title>
<polygon fill="#ffffff" stroke="transparent" points="-4,4 -4,-280 3048,-280 3048,4 -4,4"/>
<text text-anchor="start" x="1501.0091" y="-42.4" font-family="sans-serif" font-weight="bold" font-size="14.00" fill="#000000">Legend</text>
<polygon fill="#ffffb3" stroke="transparent" points="1288,-10 1288,-30 1308,-30 1308,-10 1288,-10"/>
<text text-anchor="start" x="1311.629" y="-15.4" font-family="sans-serif" font-size="14.00" fill="#000000"> &#160;Declarations</text>
<polygon fill="#8dd3c7" stroke="transparent" points="1401,-10 1401,-30 1421,-30 1421,-10 1401,-10"/>
<text text-anchor="start" x="1424.7251" y="-15.4" font-family="sans-serif" font-size="14.00" fill="#000000"> &#160;Module</text>
<polygon fill="#80b1d3" stroke="transparent" points="1487,-10 1487,-30 1507,-30 1507,-10 1487,-10"/>
<text text-anchor="start" x="1510.7812" y="-15.4" font-family="sans-serif" font-size="14.00" fill="#000000"> &#160;Bootstrap</text>
<polygon fill="#fdb462" stroke="transparent" points="1584,-10 1584,-30 1604,-30 1604,-10 1584,-10"/>
<text text-anchor="start" x="1607.6732" y="-15.4" font-family="sans-serif" font-size="14.00" fill="#000000"> &#160;Providers</text>
<polygon fill="#fb8072" stroke="transparent" points="1680,-10 1680,-30 1700,-30 1700,-10 1680,-10"/>
<text text-anchor="start" x="1703.7258" y="-15.4" font-family="sans-serif" font-size="14.00" fill="#000000"> &#160;Exports</text>
<g id="clust1" class="cluster">
<title>cluster_AppModule</title>
<polygon fill="none" stroke="#000000" stroke-dasharray="1,5" points="8,-70 8,-268 3036,-268 3036,-70 8,-70"/>
</g>
<g id="clust2" class="cluster">
<title>cluster_AppModule_declarations</title>
<polygon fill="none" stroke="#000000" points="396,-78 396,-130 3028,-130 3028,-78 396,-78"/>
</g>
<g id="clust20" class="cluster">
<title>cluster_AppModule_imports</title>
<polygon fill="none" stroke="#000000" points="244,-78 244,-130 388,-130 388,-78 244,-78"/>
</g>
<g id="clust22" class="cluster">
<title>cluster_AppModule_bootstrap</title>
<polygon fill="none" stroke="#000000" points="1445,-208 1445,-260 1569,-260 1569,-208 1445,-208"/>
</g>
<g id="clust23" class="cluster">
<title>cluster_AppModule_providers</title>
<polygon fill="none" stroke="#000000" points="16,-78 16,-130 236,-130 236,-78 16,-78"/>
</g>
<!-- AppComponent -->
<g id="node1" class="node">
<title>AppComponent</title>
<polygon fill="#ffffb3" stroke="#000000" points="3019.9399,-122 2914.0601,-122 2914.0601,-86 3019.9399,-86 3019.9399,-122"/>
<text text-anchor="middle" x="2967" y="-99.8" font-family="Times,serif" font-size="14.00" fill="#000000">AppComponent</text>
</g>
<!-- AppModule -->
<g id="node18" class="node">
<title>AppModule</title>
<polygon fill="#8dd3c7" stroke="#000000" points="1548.6571,-187 1545.6571,-191 1524.6571,-191 1521.6571,-187 1465.3429,-187 1465.3429,-151 1548.6571,-151 1548.6571,-187"/>
<text text-anchor="middle" x="1507" y="-164.8" font-family="Times,serif" font-size="14.00" fill="#000000">AppModule</text>
</g>
<!-- AppComponent&#45;&gt;AppModule -->
<g id="edge1" class="edge">
<title>AppComponent&#45;&gt;AppModule</title>
<path fill="none" stroke="#000000" d="M2967,-122.1532C2967,-145.7566 2967,-184 2967,-184 2967,-184 1558.731,-184 1558.731,-184"/>
<polygon fill="#000000" stroke="#000000" points="1558.731,-180.5001 1548.731,-184 1558.7309,-187.5001 1558.731,-180.5001"/>
</g>
<!-- DeviceAddingComponent -->
<g id="node2" class="node">
<title>DeviceAddingComponent</title>
<polygon fill="#ffffb3" stroke="#000000" points="2896.4706,-122 2733.5294,-122 2733.5294,-86 2896.4706,-86 2896.4706,-122"/>
<text text-anchor="middle" x="2815" y="-99.8" font-family="Times,serif" font-size="14.00" fill="#000000">DeviceAddingComponent</text>
</g>
<!-- DeviceAddingComponent&#45;&gt;AppModule -->
<g id="edge2" class="edge">
<title>DeviceAddingComponent&#45;&gt;AppModule</title>
<path fill="none" stroke="#000000" d="M2815,-122.0109C2815,-144.4852 2815,-180 2815,-180 2815,-180 1558.6714,-180 1558.6714,-180"/>
<polygon fill="#000000" stroke="#000000" points="1558.6714,-176.5001 1548.6714,-180 1558.6713,-183.5001 1558.6714,-176.5001"/>
</g>
<!-- DeviceComponent -->
<g id="node3" class="node">
<title>DeviceComponent</title>
<polygon fill="#ffffb3" stroke="#000000" points="2715.4734,-122 2594.5266,-122 2594.5266,-86 2715.4734,-86 2715.4734,-122"/>
<text text-anchor="middle" x="2655" y="-99.8" font-family="Times,serif" font-size="14.00" fill="#000000">DeviceComponent</text>
</g>
<!-- DeviceComponent&#45;&gt;AppModule -->
<g id="edge3" class="edge">
<title>DeviceComponent&#45;&gt;AppModule</title>
<path fill="none" stroke="#000000" d="M2655,-122.0449C2655,-143.6623 2655,-177 2655,-177 2655,-177 1558.8771,-177 1558.8771,-177"/>
<polygon fill="#000000" stroke="#000000" points="1558.8772,-173.5001 1548.8771,-177 1558.8771,-180.5001 1558.8772,-173.5001"/>
</g>
<!-- DeviceManagmentComponent -->
<g id="node4" class="node">
<title>DeviceManagmentComponent</title>
<polygon fill="#ffffb3" stroke="#000000" points="2576.8431,-122 2389.1569,-122 2389.1569,-86 2576.8431,-86 2576.8431,-122"/>
<text text-anchor="middle" x="2483" y="-99.8" font-family="Times,serif" font-size="14.00" fill="#000000">DeviceManagmentComponent</text>
</g>
<!-- DeviceManagmentComponent&#45;&gt;AppModule -->
<g id="edge4" class="edge">
<title>DeviceManagmentComponent&#45;&gt;AppModule</title>
<path fill="none" stroke="#000000" d="M2483,-122.1289C2483,-142.5724 2483,-173 2483,-173 2483,-173 1558.9375,-173 1558.9375,-173"/>
<polygon fill="#000000" stroke="#000000" points="1558.9375,-169.5001 1548.9375,-173 1558.9375,-176.5001 1558.9375,-169.5001"/>
</g>
<!-- FileAddingComponent -->
<g id="node5" class="node">
<title>FileAddingComponent</title>
<polygon fill="#ffffb3" stroke="#000000" points="2371.608,-122 2226.392,-122 2226.392,-86 2371.608,-86 2371.608,-122"/>
<text text-anchor="middle" x="2299" y="-99.8" font-family="Times,serif" font-size="14.00" fill="#000000">FileAddingComponent</text>
</g>
<!-- FileAddingComponent&#45;&gt;AppModule -->
<g id="edge5" class="edge">
<title>FileAddingComponent&#45;&gt;AppModule</title>
<path fill="none" stroke="#000000" d="M2299,-122.1061C2299,-141.3391 2299,-169 2299,-169 2299,-169 1558.7438,-169 1558.7438,-169"/>
<polygon fill="#000000" stroke="#000000" points="1558.7438,-165.5001 1548.7438,-169 1558.7438,-172.5001 1558.7438,-165.5001"/>
</g>
<!-- GroupAddingComponent -->
<g id="node6" class="node">
<title>GroupAddingComponent</title>
<polygon fill="#ffffb3" stroke="#000000" points="2208.5968,-122 2049.4032,-122 2049.4032,-86 2208.5968,-86 2208.5968,-122"/>
<text text-anchor="middle" x="2129" y="-99.8" font-family="Times,serif" font-size="14.00" fill="#000000">GroupAddingComponent</text>
</g>
<!-- GroupAddingComponent&#45;&gt;AppModule -->
<g id="edge6" class="edge">
<title>GroupAddingComponent&#45;&gt;AppModule</title>
<path fill="none" stroke="#000000" d="M2129,-122.2667C2129,-140.5552 2129,-166 2129,-166 2129,-166 1558.777,-166 1558.777,-166"/>
<polygon fill="#000000" stroke="#000000" points="1558.777,-162.5001 1548.777,-166 1558.777,-169.5001 1558.777,-162.5001"/>
</g>
<!-- GroupComponent -->
<g id="node7" class="node">
<title>GroupComponent</title>
<polygon fill="#ffffb3" stroke="#000000" points="2031.5996,-122 1914.4004,-122 1914.4004,-86 2031.5996,-86 2031.5996,-122"/>
<text text-anchor="middle" x="1973" y="-99.8" font-family="Times,serif" font-size="14.00" fill="#000000">GroupComponent</text>
</g>
<!-- GroupComponent&#45;&gt;AppModule -->
<g id="edge7" class="edge">
<title>GroupComponent&#45;&gt;AppModule</title>
<path fill="none" stroke="#000000" d="M1973,-122.0336C1973,-139.0597 1973,-162 1973,-162 1973,-162 1558.7645,-162 1558.7645,-162"/>
<polygon fill="#000000" stroke="#000000" points="1558.7645,-158.5001 1548.7645,-162 1558.7645,-165.5001 1558.7645,-158.5001"/>
</g>
<!-- GroupManagmentComponent -->
<g id="node8" class="node">
<title>GroupManagmentComponent</title>
<polygon fill="#ffffb3" stroke="#000000" points="1895.9692,-122 1712.0308,-122 1712.0308,-86 1895.9692,-86 1895.9692,-122"/>
<text text-anchor="middle" x="1804" y="-99.8" font-family="Times,serif" font-size="14.00" fill="#000000">GroupManagmentComponent</text>
</g>
<!-- GroupManagmentComponent&#45;&gt;AppModule -->
<g id="edge8" class="edge">
<title>GroupManagmentComponent&#45;&gt;AppModule</title>
<path fill="none" stroke="#000000" d="M1804,-122.0091C1804,-138.0494 1804,-159 1804,-159 1804,-159 1558.9229,-159 1558.9229,-159"/>
<polygon fill="#000000" stroke="#000000" points="1558.923,-155.5001 1548.9229,-159 1558.9229,-162.5001 1558.923,-155.5001"/>
</g>
<!-- GroupUsersPipe -->
<g id="node9" class="node">
<title>GroupUsersPipe</title>
<polygon fill="#ffffb3" stroke="#000000" points="1694.027,-122 1585.973,-122 1585.973,-86 1694.027,-86 1694.027,-122"/>
<text text-anchor="middle" x="1640" y="-99.8" font-family="Times,serif" font-size="14.00" fill="#000000">GroupUsersPipe</text>
</g>
<!-- GroupUsersPipe&#45;&gt;AppModule -->
<g id="edge9" class="edge">
<title>GroupUsersPipe&#45;&gt;AppModule</title>
<path fill="none" stroke="#000000" d="M1640,-122.1243C1640,-136.7832 1640,-155 1640,-155 1640,-155 1558.7171,-155 1558.7171,-155"/>
<polygon fill="#000000" stroke="#000000" points="1558.7172,-151.5001 1548.7171,-155 1558.7171,-158.5001 1558.7172,-151.5001"/>
</g>
<!-- HeaderComponent -->
<g id="node10" class="node">
<title>HeaderComponent</title>
<polygon fill="#ffffb3" stroke="#000000" points="1567.7437,-122 1446.2563,-122 1446.2563,-86 1567.7437,-86 1567.7437,-122"/>
<text text-anchor="middle" x="1507" y="-99.8" font-family="Times,serif" font-size="14.00" fill="#000000">HeaderComponent</text>
</g>
<!-- HeaderComponent&#45;&gt;AppModule -->
<g id="edge10" class="edge">
<title>HeaderComponent&#45;&gt;AppModule</title>
<path fill="none" stroke="#000000" d="M1507,-122.1061C1507,-122.1061 1507,-140.991 1507,-140.991"/>
<polygon fill="#000000" stroke="#000000" points="1503.5001,-140.9909 1507,-150.991 1510.5001,-140.991 1503.5001,-140.9909"/>
</g>
<!-- LandingComponent -->
<g id="node11" class="node">
<title>LandingComponent</title>
<polygon fill="#ffffb3" stroke="#000000" points="1427.9902,-122 1300.0098,-122 1300.0098,-86 1427.9902,-86 1427.9902,-122"/>
<text text-anchor="middle" x="1364" y="-99.8" font-family="Times,serif" font-size="14.00" fill="#000000">LandingComponent</text>
</g>
<!-- LandingComponent&#45;&gt;AppModule -->
<g id="edge11" class="edge">
<title>LandingComponent&#45;&gt;AppModule</title>
<path fill="none" stroke="#000000" d="M1364,-122.1243C1364,-136.7832 1364,-155 1364,-155 1364,-155 1455.2541,-155 1455.2541,-155"/>
<polygon fill="#000000" stroke="#000000" points="1455.2541,-158.5001 1465.2541,-155 1455.254,-151.5001 1455.2541,-158.5001"/>
</g>
<!-- LoggedInComponent -->
<g id="node12" class="node">
<title>LoggedInComponent</title>
<polygon fill="#ffffb3" stroke="#000000" points="1281.7604,-122 1146.2396,-122 1146.2396,-86 1281.7604,-86 1281.7604,-122"/>
<text text-anchor="middle" x="1214" y="-99.8" font-family="Times,serif" font-size="14.00" fill="#000000">LoggedInComponent</text>
</g>
<!-- LoggedInComponent&#45;&gt;AppModule -->
<g id="edge12" class="edge">
<title>LoggedInComponent&#45;&gt;AppModule</title>
<path fill="none" stroke="#000000" d="M1214,-122.0091C1214,-138.0494 1214,-159 1214,-159 1214,-159 1455.3314,-159 1455.3314,-159"/>
<polygon fill="#000000" stroke="#000000" points="1455.3314,-162.5001 1465.3314,-159 1455.3314,-155.5001 1455.3314,-162.5001"/>
</g>
<!-- LoggedInHeaderComponent -->
<g id="node13" class="node">
<title>LoggedInHeaderComponent</title>
<polygon fill="#ffffb3" stroke="#000000" points="1128.1713,-122 951.8287,-122 951.8287,-86 1128.1713,-86 1128.1713,-122"/>
<text text-anchor="middle" x="1040" y="-99.8" font-family="Times,serif" font-size="14.00" fill="#000000">LoggedInHeaderComponent</text>
</g>
<!-- LoggedInHeaderComponent&#45;&gt;AppModule -->
<g id="edge13" class="edge">
<title>LoggedInHeaderComponent&#45;&gt;AppModule</title>
<path fill="none" stroke="#000000" d="M1040,-122.0336C1040,-139.0597 1040,-162 1040,-162 1040,-162 1455.1459,-162 1455.1459,-162"/>
<polygon fill="#000000" stroke="#000000" points="1455.1459,-165.5001 1465.1459,-162 1455.1458,-158.5001 1455.1459,-165.5001"/>
</g>
<!-- SidebarComponent -->
<g id="node14" class="node">
<title>SidebarComponent</title>
<polygon fill="#ffffb3" stroke="#000000" points="934.0954,-122 809.9046,-122 809.9046,-86 934.0954,-86 934.0954,-122"/>
<text text-anchor="middle" x="872" y="-99.8" font-family="Times,serif" font-size="14.00" fill="#000000">SidebarComponent</text>
</g>
<!-- SidebarComponent&#45;&gt;AppModule -->
<g id="edge14" class="edge">
<title>SidebarComponent&#45;&gt;AppModule</title>
<path fill="none" stroke="#000000" d="M872,-122.2667C872,-140.5552 872,-166 872,-166 872,-166 1455.3359,-166 1455.3359,-166"/>
<polygon fill="#000000" stroke="#000000" points="1455.3359,-169.5001 1465.3359,-166 1455.3358,-162.5001 1455.3359,-169.5001"/>
</g>
<!-- SignInComponent -->
<g id="node15" class="node">
<title>SignInComponent</title>
<polygon fill="#ffffb3" stroke="#000000" points="792.1667,-122 673.8333,-122 673.8333,-86 792.1667,-86 792.1667,-122"/>
<text text-anchor="middle" x="733" y="-99.8" font-family="Times,serif" font-size="14.00" fill="#000000">SignInComponent</text>
</g>
<!-- SignInComponent&#45;&gt;AppModule -->
<g id="edge15" class="edge">
<title>SignInComponent&#45;&gt;AppModule</title>
<path fill="none" stroke="#000000" d="M733,-122.1061C733,-141.3391 733,-169 733,-169 733,-169 1455.112,-169 1455.112,-169"/>
<polygon fill="#000000" stroke="#000000" points="1455.112,-172.5001 1465.112,-169 1455.1119,-165.5001 1455.112,-172.5001"/>
</g>
<!-- SignUpComponent -->
<g id="node16" class="node">
<title>SignUpComponent</title>
<polygon fill="#ffffb3" stroke="#000000" points="656.1123,-122 531.8877,-122 531.8877,-86 656.1123,-86 656.1123,-122"/>
<text text-anchor="middle" x="594" y="-99.8" font-family="Times,serif" font-size="14.00" fill="#000000">SignUpComponent</text>
</g>
<!-- SignUpComponent&#45;&gt;AppModule -->
<g id="edge16" class="edge">
<title>SignUpComponent&#45;&gt;AppModule</title>
<path fill="none" stroke="#000000" d="M594,-122.1289C594,-142.5724 594,-173 594,-173 594,-173 1455.097,-173 1455.097,-173"/>
<polygon fill="#000000" stroke="#000000" points="1455.097,-176.5001 1465.097,-173 1455.097,-169.5001 1455.097,-176.5001"/>
</g>
<!-- TestingDirective -->
<g id="node17" class="node">
<title>TestingDirective</title>
<polygon fill="#ffffb3" stroke="#000000" points="514.0758,-122 403.9242,-122 403.9242,-86 514.0758,-86 514.0758,-122"/>
<text text-anchor="middle" x="459" y="-99.8" font-family="Times,serif" font-size="14.00" fill="#000000">TestingDirective</text>
</g>
<!-- TestingDirective&#45;&gt;AppModule -->
<g id="edge17" class="edge">
<title>TestingDirective&#45;&gt;AppModule</title>
<path fill="none" stroke="#000000" d="M459,-122.0449C459,-143.6623 459,-177 459,-177 459,-177 1455.2704,-177 1455.2704,-177"/>
<polygon fill="#000000" stroke="#000000" points="1455.2705,-180.5001 1465.2704,-177 1455.2704,-173.5001 1455.2705,-180.5001"/>
</g>
<!-- AppComponent  -->
<g id="node20" class="node">
<title>AppComponent </title>
<polygon fill="#80b1d3" stroke="#000000" points="1561.439,-252 1452.561,-252 1452.561,-216 1561.439,-216 1561.439,-252"/>
<text text-anchor="middle" x="1507" y="-229.8" font-family="Times,serif" font-size="14.00" fill="#000000">AppComponent </text>
</g>
<!-- AppModule&#45;&gt;AppComponent  -->
<g id="edge19" class="edge">
<title>AppModule&#45;&gt;AppComponent </title>
<path fill="none" stroke="#000000" stroke-dasharray="1,5" d="M1507,-187.1061C1507,-187.1061 1507,-205.991 1507,-205.991"/>
<polygon fill="#000000" stroke="#000000" points="1503.5001,-205.9909 1507,-215.991 1510.5001,-205.991 1503.5001,-205.9909"/>
</g>
<!-- AppRoutingModule -->
<g id="node19" class="node">
<title>AppRoutingModule</title>
<polygon fill="#8dd3c7" stroke="#000000" points="380.2744,-122 377.2744,-126 356.2744,-126 353.2744,-122 251.7256,-122 251.7256,-86 380.2744,-86 380.2744,-122"/>
<text text-anchor="middle" x="316" y="-99.8" font-family="Times,serif" font-size="14.00" fill="#000000">AppRoutingModule</text>
</g>
<!-- AppRoutingModule&#45;&gt;AppModule -->
<g id="edge18" class="edge">
<title>AppRoutingModule&#45;&gt;AppModule</title>
<path fill="none" stroke="#000000" d="M316,-122.0109C316,-144.4852 316,-180 316,-180 316,-180 1455.31,-180 1455.31,-180"/>
<polygon fill="#000000" stroke="#000000" points="1455.3101,-183.5001 1465.31,-180 1455.31,-176.5001 1455.3101,-183.5001"/>
</g>
<!-- AuthInterceptorService -->
<g id="node21" class="node">
<title>AuthInterceptorService</title>
<ellipse fill="#fdb462" stroke="#000000" cx="126" cy="-104" rx="101.8225" ry="18"/>
<text text-anchor="middle" x="126" y="-99.8" font-family="Times,serif" font-size="14.00" fill="#000000">AuthInterceptorService</text>
</g>
<!-- AuthInterceptorService&#45;&gt;AppModule -->
<g id="edge20" class="edge">
<title>AuthInterceptorService&#45;&gt;AppModule</title>
<path fill="none" stroke="#000000" d="M126,-122.1532C126,-145.7566 126,-184 126,-184 126,-184 1455.2932,-184 1455.2932,-184"/>
<polygon fill="#000000" stroke="#000000" points="1455.2932,-187.5001 1465.2932,-184 1455.2931,-180.5001 1455.2932,-187.5001"/>
</g>
</g>
</svg>
