<?xml version="1.0" encoding="UTF-8" standalone="no"?>
<!DOCTYPE svg PUBLIC "-//W3C//DTD SVG 1.1//EN"
 "http://www.w3.org/Graphics/SVG/1.1/DTD/svg11.dtd">
<!-- Generated by graphviz version 2.40.1 (20161225.0304)
 -->
<!-- Title: dependencies Pages: 1 -->
<svg width="4012pt" height="284pt"
 viewBox="0.00 0.00 4012.00 284.00" xmlns="http://www.w3.org/2000/svg" xmlns:xlink="http://www.w3.org/1999/xlink">
<g id="graph0" class="graph" transform="scale(1 1) rotate(0) translate(4 280)">
<title>dependencies</title>
<polygon fill="#ffffff" stroke="transparent" points="-4,4 -4,-280 4008,-280 4008,4 -4,4"/>
<text text-anchor="start" x="1981.0091" y="-42.4" font-family="sans-serif" font-weight="bold" font-size="14.00" fill="#000000">Legend</text>
<polygon fill="#ffffb3" stroke="transparent" points="1768,-10 1768,-30 1788,-30 1788,-10 1768,-10"/>
<text text-anchor="start" x="1791.629" y="-15.4" font-family="sans-serif" font-size="14.00" fill="#000000"> &#160;Declarations</text>
<polygon fill="#8dd3c7" stroke="transparent" points="1881,-10 1881,-30 1901,-30 1901,-10 1881,-10"/>
<text text-anchor="start" x="1904.7251" y="-15.4" font-family="sans-serif" font-size="14.00" fill="#000000"> &#160;Module</text>
<polygon fill="#80b1d3" stroke="transparent" points="1967,-10 1967,-30 1987,-30 1987,-10 1967,-10"/>
<text text-anchor="start" x="1990.7812" y="-15.4" font-family="sans-serif" font-size="14.00" fill="#000000"> &#160;Bootstrap</text>
<polygon fill="#fdb462" stroke="transparent" points="2064,-10 2064,-30 2084,-30 2084,-10 2064,-10"/>
<text text-anchor="start" x="2087.6732" y="-15.4" font-family="sans-serif" font-size="14.00" fill="#000000"> &#160;Providers</text>
<polygon fill="#fb8072" stroke="transparent" points="2160,-10 2160,-30 2180,-30 2180,-10 2160,-10"/>
<text text-anchor="start" x="2183.7258" y="-15.4" font-family="sans-serif" font-size="14.00" fill="#000000"> &#160;Exports</text>
<g id="clust1" class="cluster">
<title>cluster_AppModule</title>
<polygon fill="none" stroke="#000000" stroke-dasharray="1,5" points="8,-70 8,-268 3996,-268 3996,-70 8,-70"/>
</g>
<g id="clust2" class="cluster">
<title>cluster_AppModule_declarations</title>
<polygon fill="none" stroke="#000000" points="396,-78 396,-130 3988,-130 3988,-78 396,-78"/>
</g>
<g id="clust24" class="cluster">
<title>cluster_AppModule_imports</title>
<polygon fill="none" stroke="#000000" points="244,-78 244,-130 388,-130 388,-78 244,-78"/>
</g>
<g id="clust26" class="cluster">
<title>cluster_AppModule_bootstrap</title>
<polygon fill="none" stroke="#000000" points="2112,-208 2112,-260 2236,-260 2236,-208 2112,-208"/>
</g>
<g id="clust27" class="cluster">
<title>cluster_AppModule_providers</title>
<polygon fill="none" stroke="#000000" points="16,-78 16,-130 236,-130 236,-78 16,-78"/>
</g>
<!-- AppComponent -->
<g id="node1" class="node">
<title>AppComponent</title>
<polygon fill="#ffffb3" stroke="#000000" points="3979.9399,-122 3874.0601,-122 3874.0601,-86 3979.9399,-86 3979.9399,-122"/>
<text text-anchor="middle" x="3927" y="-99.8" font-family="Times,serif" font-size="14.00" fill="#000000">AppComponent</text>
</g>
<!-- AppModule -->
<g id="node22" class="node">
<title>AppModule</title>
<polygon fill="#8dd3c7" stroke="#000000" points="2215.6571,-187 2212.6571,-191 2191.6571,-191 2188.6571,-187 2132.3429,-187 2132.3429,-151 2215.6571,-151 2215.6571,-187"/>
<text text-anchor="middle" x="2174" y="-164.8" font-family="Times,serif" font-size="14.00" fill="#000000">AppModule</text>
</g>
<!-- AppComponent&#45;&gt;AppModule -->
<g id="edge1" class="edge">
<title>AppComponent&#45;&gt;AppModule</title>
<path fill="none" stroke="#000000" d="M3927,-122.1532C3927,-145.7566 3927,-184 3927,-184 3927,-184 2226.033,-184 2226.033,-184"/>
<polygon fill="#000000" stroke="#000000" points="2226.033,-180.5001 2216.033,-184 2226.033,-187.5001 2226.033,-180.5001"/>
</g>
<!-- DeviceAddingComponent -->
<g id="node2" class="node">
<title>DeviceAddingComponent</title>
<polygon fill="#ffffb3" stroke="#000000" points="3856.4706,-122 3693.5294,-122 3693.5294,-86 3856.4706,-86 3856.4706,-122"/>
<text text-anchor="middle" x="3775" y="-99.8" font-family="Times,serif" font-size="14.00" fill="#000000">DeviceAddingComponent</text>
</g>
<!-- DeviceAddingComponent&#45;&gt;AppModule -->
<g id="edge2" class="edge">
<title>DeviceAddingComponent&#45;&gt;AppModule</title>
<path fill="none" stroke="#000000" d="M3775,-122.2479C3775,-145.0179 3775,-181 3775,-181 3775,-181 2225.9999,-181 2225.9999,-181"/>
<polygon fill="#000000" stroke="#000000" points="2226,-177.5001 2215.9999,-181 2225.9999,-184.5001 2226,-177.5001"/>
</g>
<!-- DeviceComponent -->
<g id="node3" class="node">
<title>DeviceComponent</title>
<polygon fill="#ffffb3" stroke="#000000" points="3675.4734,-122 3554.5266,-122 3554.5266,-86 3675.4734,-86 3675.4734,-122"/>
<text text-anchor="middle" x="3615" y="-99.8" font-family="Times,serif" font-size="14.00" fill="#000000">DeviceComponent</text>
</g>
<!-- DeviceComponent&#45;&gt;AppModule -->
<g id="edge3" class="edge">
<title>DeviceComponent&#45;&gt;AppModule</title>
<path fill="none" stroke="#000000" d="M3615,-122.2921C3615,-144.2057 3615,-178 3615,-178 3615,-178 2225.9583,-178 2225.9583,-178"/>
<polygon fill="#000000" stroke="#000000" points="2225.9584,-174.5001 2215.9583,-178 2225.9583,-181.5001 2225.9584,-174.5001"/>
</g>
<!-- DeviceManagmentComponent -->
<g id="node4" class="node">
<title>DeviceManagmentComponent</title>
<polygon fill="#ffffb3" stroke="#000000" points="3536.8431,-122 3349.1569,-122 3349.1569,-86 3536.8431,-86 3536.8431,-122"/>
<text text-anchor="middle" x="3443" y="-99.8" font-family="Times,serif" font-size="14.00" fill="#000000">DeviceManagmentComponent</text>
</g>
<!-- DeviceManagmentComponent&#45;&gt;AppModule -->
<g id="edge4" class="edge">
<title>DeviceManagmentComponent&#45;&gt;AppModule</title>
<path fill="none" stroke="#000000" d="M3443,-122.2843C3443,-143.3211 3443,-175 3443,-175 3443,-175 2225.8605,-175 2225.8605,-175"/>
<polygon fill="#000000" stroke="#000000" points="2225.8605,-171.5001 2215.8605,-175 2225.8604,-178.5001 2225.8605,-171.5001"/>
</g>
<!-- FileAddingComponent -->
<g id="node5" class="node">
<title>FileAddingComponent</title>
<polygon fill="#ffffb3" stroke="#000000" points="3331.608,-122 3186.392,-122 3186.392,-86 3331.608,-86 3331.608,-122"/>
<text text-anchor="middle" x="3259" y="-99.8" font-family="Times,serif" font-size="14.00" fill="#000000">FileAddingComponent</text>
</g>
<!-- FileAddingComponent&#45;&gt;AppModule -->
<g id="edge5" class="edge">
<title>FileAddingComponent&#45;&gt;AppModule</title>
<path fill="none" stroke="#000000" d="M3259,-122.2228C3259,-142.3652 3259,-172 3259,-172 3259,-172 2225.8685,-172 2225.8685,-172"/>
<polygon fill="#000000" stroke="#000000" points="2225.8685,-168.5001 2215.8685,-172 2225.8684,-175.5001 2225.8685,-168.5001"/>
</g>
<!-- GroupAddingComponent -->
<g id="node6" class="node">
<title>GroupAddingComponent</title>
<polygon fill="#ffffb3" stroke="#000000" points="3168.5968,-122 3009.4032,-122 3009.4032,-86 3168.5968,-86 3168.5968,-122"/>
<text text-anchor="middle" x="3089" y="-99.8" font-family="Times,serif" font-size="14.00" fill="#000000">GroupAddingComponent</text>
</g>
<!-- GroupAddingComponent&#45;&gt;AppModule -->
<g id="edge6" class="edge">
<title>GroupAddingComponent&#45;&gt;AppModule</title>
<path fill="none" stroke="#000000" d="M3089,-122.1061C3089,-141.3391 3089,-169 3089,-169 3089,-169 2225.6933,-169 2225.6933,-169"/>
<polygon fill="#000000" stroke="#000000" points="2225.6933,-165.5001 2215.6933,-169 2225.6933,-172.5001 2225.6933,-165.5001"/>
</g>
<!-- GroupComponent -->
<g id="node7" class="node">
<title>GroupComponent</title>
<polygon fill="#ffffb3" stroke="#000000" points="2991.5996,-122 2874.4004,-122 2874.4004,-86 2991.5996,-86 2991.5996,-122"/>
<text text-anchor="middle" x="2933" y="-99.8" font-family="Times,serif" font-size="14.00" fill="#000000">GroupComponent</text>
</g>
<!-- GroupComponent&#45;&gt;AppModule -->
<g id="edge7" class="edge">
<title>GroupComponent&#45;&gt;AppModule</title>
<path fill="none" stroke="#000000" d="M2933,-122.2667C2933,-140.5552 2933,-166 2933,-166 2933,-166 2225.8883,-166 2225.8883,-166"/>
<polygon fill="#000000" stroke="#000000" points="2225.8883,-162.5001 2215.8883,-166 2225.8882,-169.5001 2225.8883,-162.5001"/>
</g>
<!-- GroupManagmentComponent -->
<g id="node8" class="node">
<title>GroupManagmentComponent</title>
<polygon fill="#ffffb3" stroke="#000000" points="2855.9692,-122 2672.0308,-122 2672.0308,-86 2855.9692,-86 2855.9692,-122"/>
<text text-anchor="middle" x="2764" y="-99.8" font-family="Times,serif" font-size="14.00" fill="#000000">GroupManagmentComponent</text>
</g>
<!-- GroupManagmentComponent&#45;&gt;AppModule -->
<g id="edge8" class="edge">
<title>GroupManagmentComponent&#45;&gt;AppModule</title>
<path fill="none" stroke="#000000" d="M2764,-122.0225C2764,-139.3734 2764,-163 2764,-163 2764,-163 2225.9584,-163 2225.9584,-163"/>
<polygon fill="#000000" stroke="#000000" points="2225.9584,-159.5001 2215.9584,-163 2225.9583,-166.5001 2225.9584,-159.5001"/>
</g>
<!-- GroupUsersPipe -->
<g id="node9" class="node">
<title>GroupUsersPipe</title>
<polygon fill="#ffffb3" stroke="#000000" points="2654.027,-122 2545.973,-122 2545.973,-86 2654.027,-86 2654.027,-122"/>
<text text-anchor="middle" x="2600" y="-99.8" font-family="Times,serif" font-size="14.00" fill="#000000">GroupUsersPipe</text>
</g>
<!-- GroupUsersPipe&#45;&gt;AppModule -->
<g id="edge9" class="edge">
<title>GroupUsersPipe&#45;&gt;AppModule</title>
<path fill="none" stroke="#000000" d="M2600,-122.027C2600,-138.3976 2600,-160 2600,-160 2600,-160 2226.0124,-160 2226.0124,-160"/>
<polygon fill="#000000" stroke="#000000" points="2226.0124,-156.5001 2216.0124,-160 2226.0123,-163.5001 2226.0124,-156.5001"/>
</g>
<!-- HeaderComponent -->
<g id="node10" class="node">
<title>HeaderComponent</title>
<polygon fill="#ffffb3" stroke="#000000" points="2527.7437,-122 2406.2563,-122 2406.2563,-86 2527.7437,-86 2527.7437,-122"/>
<text text-anchor="middle" x="2467" y="-99.8" font-family="Times,serif" font-size="14.00" fill="#000000">HeaderComponent</text>
</g>
<!-- HeaderComponent&#45;&gt;AppModule -->
<g id="edge10" class="edge">
<title>HeaderComponent&#45;&gt;AppModule</title>
<path fill="none" stroke="#000000" d="M2467,-122.2396C2467,-137.5706 2467,-157 2467,-157 2467,-157 2225.6686,-157 2225.6686,-157"/>
<polygon fill="#000000" stroke="#000000" points="2225.6686,-153.5001 2215.6686,-157 2225.6686,-160.5001 2225.6686,-153.5001"/>
</g>
<!-- LandingComponent -->
<g id="node11" class="node">
<title>LandingComponent</title>
<polygon fill="#ffffb3" stroke="#000000" points="2387.9902,-122 2260.0098,-122 2260.0098,-86 2387.9902,-86 2387.9902,-122"/>
<text text-anchor="middle" x="2324" y="-99.8" font-family="Times,serif" font-size="14.00" fill="#000000">LandingComponent</text>
</g>
<!-- LandingComponent&#45;&gt;AppModule -->
<g id="edge11" class="edge">
<title>LandingComponent&#45;&gt;AppModule</title>
<path fill="none" stroke="#000000" d="M2324,-122.0511C2324,-136.373 2324,-154 2324,-154 2324,-154 2225.7834,-154 2225.7834,-154"/>
<polygon fill="#000000" stroke="#000000" points="2225.7834,-150.5001 2215.7834,-154 2225.7833,-157.5001 2225.7834,-150.5001"/>
</g>
<!-- LoggedInComponent -->
<g id="node12" class="node">
<title>LoggedInComponent</title>
<polygon fill="#ffffb3" stroke="#000000" points="2241.7604,-122 2106.2396,-122 2106.2396,-86 2241.7604,-86 2241.7604,-122"/>
<text text-anchor="middle" x="2174" y="-99.8" font-family="Times,serif" font-size="14.00" fill="#000000">LoggedInComponent</text>
</g>
<!-- LoggedInComponent&#45;&gt;AppModule -->
<g id="edge12" class="edge">
<title>LoggedInComponent&#45;&gt;AppModule</title>
<path fill="none" stroke="#000000" d="M2174,-122.1061C2174,-122.1061 2174,-140.991 2174,-140.991"/>
<polygon fill="#000000" stroke="#000000" points="2170.5001,-140.9909 2174,-150.991 2177.5001,-140.991 2170.5001,-140.9909"/>
</g>
<!-- LoggedInHeaderComponent -->
<g id="node13" class="node">
<title>LoggedInHeaderComponent</title>
<polygon fill="#ffffb3" stroke="#000000" points="2088.1713,-122 1911.8287,-122 1911.8287,-86 2088.1713,-86 2088.1713,-122"/>
<text text-anchor="middle" x="2000" y="-99.8" font-family="Times,serif" font-size="14.00" fill="#000000">LoggedInHeaderComponent</text>
</g>
<!-- LoggedInHeaderComponent&#45;&gt;AppModule -->
<g id="edge13" class="edge">
<title>LoggedInHeaderComponent&#45;&gt;AppModule</title>
<path fill="none" stroke="#000000" d="M2000,-122.0511C2000,-136.373 2000,-154 2000,-154 2000,-154 2122.3227,-154 2122.3227,-154"/>
<polygon fill="#000000" stroke="#000000" points="2122.3227,-157.5001 2132.3227,-154 2122.3226,-150.5001 2122.3227,-157.5001"/>
</g>
<!-- SidebarComponent -->
<g id="node14" class="node">
<title>SidebarComponent</title>
<polygon fill="#ffffb3" stroke="#000000" points="1894.0954,-122 1769.9046,-122 1769.9046,-86 1894.0954,-86 1894.0954,-122"/>
<text text-anchor="middle" x="1832" y="-99.8" font-family="Times,serif" font-size="14.00" fill="#000000">SidebarComponent</text>
</g>
<!-- SidebarComponent&#45;&gt;AppModule -->
<g id="edge14" class="edge">
<title>SidebarComponent&#45;&gt;AppModule</title>
<path fill="none" stroke="#000000" d="M1832,-122.2396C1832,-137.5706 1832,-157 1832,-157 1832,-157 2122.0641,-157 2122.0641,-157"/>
<polygon fill="#000000" stroke="#000000" points="2122.0641,-160.5001 2132.0641,-157 2122.0641,-153.5001 2122.0641,-160.5001"/>
</g>
<!-- SignInComponent -->
<g id="node15" class="node">
<title>SignInComponent</title>
<polygon fill="#ffffb3" stroke="#000000" points="1752.1667,-122 1633.8333,-122 1633.8333,-86 1752.1667,-86 1752.1667,-122"/>
<text text-anchor="middle" x="1693" y="-99.8" font-family="Times,serif" font-size="14.00" fill="#000000">SignInComponent</text>
</g>
<!-- SignInComponent&#45;&gt;AppModule -->
<g id="edge15" class="edge">
<title>SignInComponent&#45;&gt;AppModule</title>
<path fill="none" stroke="#000000" d="M1693,-122.027C1693,-138.3976 1693,-160 1693,-160 1693,-160 2122.1558,-160 2122.1558,-160"/>
<polygon fill="#000000" stroke="#000000" points="2122.1559,-163.5001 2132.1558,-160 2122.1558,-156.5001 2122.1559,-163.5001"/>
</g>
<!-- SignUpComponent -->
<g id="node16" class="node">
<title>SignUpComponent</title>
<polygon fill="#ffffb3" stroke="#000000" points="1616.1123,-122 1491.8877,-122 1491.8877,-86 1616.1123,-86 1616.1123,-122"/>
<text text-anchor="middle" x="1554" y="-99.8" font-family="Times,serif" font-size="14.00" fill="#000000">SignUpComponent</text>
</g>
<!-- SignUpComponent&#45;&gt;AppModule -->
<g id="edge16" class="edge">
<title>SignUpComponent&#45;&gt;AppModule</title>
<path fill="none" stroke="#000000" d="M1554,-122.0225C1554,-139.3734 1554,-163 1554,-163 1554,-163 2121.8723,-163 2121.8723,-163"/>
<polygon fill="#000000" stroke="#000000" points="2121.8724,-166.5001 2131.8723,-163 2121.8723,-159.5001 2121.8724,-166.5001"/>
</g>
<!-- TestingDirective -->
<g id="node17" class="node">
<title>TestingDirective</title>
<polygon fill="#ffffb3" stroke="#000000" points="1474.0758,-122 1363.9242,-122 1363.9242,-86 1474.0758,-86 1474.0758,-122"/>
<text text-anchor="middle" x="1419" y="-99.8" font-family="Times,serif" font-size="14.00" fill="#000000">TestingDirective</text>
</g>
<!-- TestingDirective&#45;&gt;AppModule -->
<g id="edge17" class="edge">
<title>TestingDirective&#45;&gt;AppModule</title>
<path fill="none" stroke="#000000" d="M1419,-122.2667C1419,-140.5552 1419,-166 1419,-166 1419,-166 2122.3325,-166 2122.3325,-166"/>
<polygon fill="#000000" stroke="#000000" points="2122.3325,-169.5001 2132.3325,-166 2122.3325,-162.5001 2122.3325,-169.5001"/>
</g>
<!-- UploadFileToDeviceComponent -->
<g id="node18" class="node">
<title>UploadFileToDeviceComponent</title>
<polygon fill="#ffffb3" stroke="#000000" points="1345.5168,-122 1146.4832,-122 1146.4832,-86 1345.5168,-86 1345.5168,-122"/>
<text text-anchor="middle" x="1246" y="-99.8" font-family="Times,serif" font-size="14.00" fill="#000000">UploadFileToDeviceComponent</text>
</g>
<!-- UploadFileToDeviceComponent&#45;&gt;AppModule -->
<g id="edge18" class="edge">
<title>UploadFileToDeviceComponent&#45;&gt;AppModule</title>
<path fill="none" stroke="#000000" d="M1246,-122.1061C1246,-141.3391 1246,-169 1246,-169 1246,-169 2122.3229,-169 2122.3229,-169"/>
<polygon fill="#000000" stroke="#000000" points="2122.323,-172.5001 2132.3229,-169 2122.3229,-165.5001 2122.323,-172.5001"/>
</g>
<!-- UploadFileToDeviceListRowComponent -->
<g id="node19" class="node">
<title>UploadFileToDeviceListRowComponent</title>
<polygon fill="#ffffb3" stroke="#000000" points="1127.7379,-122 880.2621,-122 880.2621,-86 1127.7379,-86 1127.7379,-122"/>
<text text-anchor="middle" x="1004" y="-99.8" font-family="Times,serif" font-size="14.00" fill="#000000">UploadFileToDeviceListRowComponent</text>
</g>
<!-- UploadFileToDeviceListRowComponent&#45;&gt;AppModule -->
<g id="edge19" class="edge">
<title>UploadFileToDeviceListRowComponent&#45;&gt;AppModule</title>
<path fill="none" stroke="#000000" d="M1004,-122.2228C1004,-142.3652 1004,-172 1004,-172 1004,-172 2122.0141,-172 2122.0141,-172"/>
<polygon fill="#000000" stroke="#000000" points="2122.0142,-175.5001 2132.0141,-172 2122.0141,-168.5001 2122.0142,-175.5001"/>
</g>
<!-- UploadFileToGroupComponent -->
<g id="node20" class="node">
<title>UploadFileToGroupComponent</title>
<polygon fill="#ffffb3" stroke="#000000" points="861.6427,-122 666.3573,-122 666.3573,-86 861.6427,-86 861.6427,-122"/>
<text text-anchor="middle" x="764" y="-99.8" font-family="Times,serif" font-size="14.00" fill="#000000">UploadFileToGroupComponent</text>
</g>
<!-- UploadFileToGroupComponent&#45;&gt;AppModule -->
<g id="edge20" class="edge">
<title>UploadFileToGroupComponent&#45;&gt;AppModule</title>
<path fill="none" stroke="#000000" d="M764,-122.2843C764,-143.3211 764,-175 764,-175 764,-175 2122.184,-175 2122.184,-175"/>
<polygon fill="#000000" stroke="#000000" points="2122.1841,-178.5001 2132.184,-175 2122.184,-171.5001 2122.1841,-178.5001"/>
</g>
<!-- UploadFileToGroupListRowComponent -->
<g id="node21" class="node">
<title>UploadFileToGroupListRowComponent</title>
<polygon fill="#ffffb3" stroke="#000000" points="647.864,-122 404.136,-122 404.136,-86 647.864,-86 647.864,-122"/>
<text text-anchor="middle" x="526" y="-99.8" font-family="Times,serif" font-size="14.00" fill="#000000">UploadFileToGroupListRowComponent</text>
</g>
<!-- UploadFileToGroupListRowComponent&#45;&gt;AppModule -->
<g id="edge21" class="edge">
<title>UploadFileToGroupListRowComponent&#45;&gt;AppModule</title>
<path fill="none" stroke="#000000" d="M526,-122.2921C526,-144.2057 526,-178 526,-178 526,-178 2122.0235,-178 2122.0235,-178"/>
<polygon fill="#000000" stroke="#000000" points="2122.0235,-181.5001 2132.0235,-178 2122.0234,-174.5001 2122.0235,-181.5001"/>
</g>
<!-- AppComponent  -->
<g id="node24" class="node">
<title>AppComponent </title>
<polygon fill="#80b1d3" stroke="#000000" points="2228.439,-252 2119.561,-252 2119.561,-216 2228.439,-216 2228.439,-252"/>
<text text-anchor="middle" x="2174" y="-229.8" font-family="Times,serif" font-size="14.00" fill="#000000">AppComponent </text>
</g>
<!-- AppModule&#45;&gt;AppComponent  -->
<g id="edge23" class="edge">
<title>AppModule&#45;&gt;AppComponent </title>
<path fill="none" stroke="#000000" stroke-dasharray="1,5" d="M2174,-187.1061C2174,-187.1061 2174,-205.991 2174,-205.991"/>
<polygon fill="#000000" stroke="#000000" points="2170.5001,-205.9909 2174,-215.991 2177.5001,-205.991 2170.5001,-205.9909"/>
</g>
<!-- AppRoutingModule -->
<g id="node23" class="node">
<title>AppRoutingModule</title>
<polygon fill="#8dd3c7" stroke="#000000" points="380.2744,-122 377.2744,-126 356.2744,-126 353.2744,-122 251.7256,-122 251.7256,-86 380.2744,-86 380.2744,-122"/>
<text text-anchor="middle" x="316" y="-99.8" font-family="Times,serif" font-size="14.00" fill="#000000">AppRoutingModule</text>
</g>
<!-- AppRoutingModule&#45;&gt;AppModule -->
<g id="edge22" class="edge">
<title>AppRoutingModule&#45;&gt;AppModule</title>
<path fill="none" stroke="#000000" d="M316,-122.2479C316,-145.0179 316,-181 316,-181 316,-181 2122.1461,-181 2122.1461,-181"/>
<polygon fill="#000000" stroke="#000000" points="2122.1462,-184.5001 2132.1461,-181 2122.1461,-177.5001 2122.1462,-184.5001"/>
</g>
<!-- AuthInterceptorService -->
<g id="node25" class="node">
<title>AuthInterceptorService</title>
<ellipse fill="#fdb462" stroke="#000000" cx="126" cy="-104" rx="101.8225" ry="18"/>
<text text-anchor="middle" x="126" y="-99.8" font-family="Times,serif" font-size="14.00" fill="#000000">AuthInterceptorService</text>
</g>
<!-- AuthInterceptorService&#45;&gt;AppModule -->
<g id="edge24" class="edge">
<title>AuthInterceptorService&#45;&gt;AppModule</title>
<path fill="none" stroke="#000000" d="M126,-122.1532C126,-145.7566 126,-184 126,-184 126,-184 2122.1624,-184 2122.1624,-184"/>
<polygon fill="#000000" stroke="#000000" points="2122.1624,-187.5001 2132.1624,-184 2122.1623,-180.5001 2122.1624,-187.5001"/>
</g>
</g>
</svg>
