<?xml version="1.0" encoding="UTF-8" standalone="no"?>
<!DOCTYPE svg PUBLIC "-//W3C//DTD SVG 1.1//EN"
 "http://www.w3.org/Graphics/SVG/1.1/DTD/svg11.dtd">
<!-- Generated by graphviz version 2.40.1 (20161225.0304)
 -->
<!-- Title: dependencies Pages: 1 -->
<svg width="4612pt" height="284pt"
 viewBox="0.00 0.00 4612.00 284.00" xmlns="http://www.w3.org/2000/svg" xmlns:xlink="http://www.w3.org/1999/xlink">
<g id="graph0" class="graph" transform="scale(1 1) rotate(0) translate(4 280)">
<title>dependencies</title>
<polygon fill="#ffffff" stroke="transparent" points="-4,4 -4,-280 4608,-280 4608,4 -4,4"/>
<text text-anchor="start" x="2281.0091" y="-42.4" font-family="sans-serif" font-weight="bold" font-size="14.00" fill="#000000">Legend</text>
<polygon fill="#ffffb3" stroke="transparent" points="2068,-10 2068,-30 2088,-30 2088,-10 2068,-10"/>
<text text-anchor="start" x="2091.629" y="-15.4" font-family="sans-serif" font-size="14.00" fill="#000000"> &#160;Declarations</text>
<polygon fill="#8dd3c7" stroke="transparent" points="2181,-10 2181,-30 2201,-30 2201,-10 2181,-10"/>
<text text-anchor="start" x="2204.7251" y="-15.4" font-family="sans-serif" font-size="14.00" fill="#000000"> &#160;Module</text>
<polygon fill="#80b1d3" stroke="transparent" points="2267,-10 2267,-30 2287,-30 2287,-10 2267,-10"/>
<text text-anchor="start" x="2290.7812" y="-15.4" font-family="sans-serif" font-size="14.00" fill="#000000"> &#160;Bootstrap</text>
<polygon fill="#fdb462" stroke="transparent" points="2364,-10 2364,-30 2384,-30 2384,-10 2364,-10"/>
<text text-anchor="start" x="2387.6732" y="-15.4" font-family="sans-serif" font-size="14.00" fill="#000000"> &#160;Providers</text>
<polygon fill="#fb8072" stroke="transparent" points="2460,-10 2460,-30 2480,-30 2480,-10 2460,-10"/>
<text text-anchor="start" x="2483.7258" y="-15.4" font-family="sans-serif" font-size="14.00" fill="#000000"> &#160;Exports</text>
<g id="clust1" class="cluster">
<title>cluster_AppModule</title>
<polygon fill="none" stroke="#000000" stroke-dasharray="1,5" points="8,-70 8,-268 3996,-268 3996,-70 8,-70"/>
</g>
<g id="clust2" class="cluster">
<title>cluster_AppModule_declarations</title>
<polygon fill="none" stroke="#000000" points="396,-78 396,-130 3988,-130 3988,-78 396,-78"/>
</g>
<g id="clust24" class="cluster">
<title>cluster_AppModule_imports</title>
<polygon fill="none" stroke="#000000" points="244,-78 244,-130 388,-130 388,-78 244,-78"/>
</g>
<g id="clust26" class="cluster">
<title>cluster_AppModule_bootstrap</title>
<polygon fill="none" stroke="#000000" points="2029,-208 2029,-260 2153,-260 2153,-208 2029,-208"/>
</g>
<g id="clust27" class="cluster">
<title>cluster_AppModule_providers</title>
<polygon fill="none" stroke="#000000" points="16,-78 16,-130 236,-130 236,-78 16,-78"/>
</g>
<g id="clust34" class="cluster">
<title>cluster_SharedModule</title>
<polygon fill="none" stroke="#000000" stroke-dasharray="1,5" points="4004,-143 4004,-268 4596,-268 4596,-143 4004,-143"/>
</g>
<g id="clust41" class="cluster">
<title>cluster_SharedModule_exports</title>
<polygon fill="none" stroke="#000000" points="4012,-208 4012,-260 4588,-260 4588,-208 4012,-208"/>
</g>
<!-- AppComponent -->
<g id="node1" class="node">
<title>AppComponent</title>
<polygon fill="#ffffb3" stroke="#000000" points="2811.9399,-122 2706.0601,-122 2706.0601,-86 2811.9399,-86 2811.9399,-122"/>
<text text-anchor="middle" x="2759" y="-99.8" font-family="Times,serif" font-size="14.00" fill="#000000">AppComponent</text>
</g>
<!-- AppModule -->
<g id="node22" class="node">
<title>AppModule</title>
<polygon fill="#8dd3c7" stroke="#000000" points="2132.6571,-187 2129.6571,-191 2108.6571,-191 2105.6571,-187 2049.3429,-187 2049.3429,-151 2132.6571,-151 2132.6571,-187"/>
<text text-anchor="middle" x="2091" y="-164.8" font-family="Times,serif" font-size="14.00" fill="#000000">AppModule</text>
</g>
<!-- AppComponent&#45;&gt;AppModule -->
<g id="edge1" class="edge">
<title>AppComponent&#45;&gt;AppModule</title>
<path fill="none" stroke="#000000" d="M2759,-122.1686C2759,-141.0898 2759,-168 2759,-168 2759,-168 2142.7864,-168 2142.7864,-168"/>
<polygon fill="#000000" stroke="#000000" points="2142.7864,-164.5001 2132.7864,-168 2142.7864,-171.5001 2142.7864,-164.5001"/>
</g>
<!-- DeviceAddingComponent -->
<g id="node2" class="node">
<title>DeviceAddingComponent</title>
<polygon fill="#ffffb3" stroke="#000000" points="2688.4706,-122 2525.5294,-122 2525.5294,-86 2688.4706,-86 2688.4706,-122"/>
<text text-anchor="middle" x="2607" y="-99.8" font-family="Times,serif" font-size="14.00" fill="#000000">DeviceAddingComponent</text>
</g>
<!-- DeviceAddingComponent&#45;&gt;AppModule -->
<g id="edge2" class="edge">
<title>DeviceAddingComponent&#45;&gt;AppModule</title>
<path fill="none" stroke="#000000" d="M2607,-122.2667C2607,-140.5552 2607,-166 2607,-166 2607,-166 2142.7894,-166 2142.7894,-166"/>
<polygon fill="#000000" stroke="#000000" points="2142.7894,-162.5001 2132.7894,-166 2142.7893,-169.5001 2142.7894,-162.5001"/>
</g>
<!-- DeviceComponent -->
<g id="node3" class="node">
<title>DeviceComponent</title>
<polygon fill="#ffffb3" stroke="#000000" points="2507.4734,-122 2386.5266,-122 2386.5266,-86 2507.4734,-86 2507.4734,-122"/>
<text text-anchor="middle" x="2447" y="-99.8" font-family="Times,serif" font-size="14.00" fill="#000000">DeviceComponent</text>
</g>
<!-- DeviceComponent&#45;&gt;AppModule -->
<g id="edge3" class="edge">
<title>DeviceComponent&#45;&gt;AppModule</title>
<path fill="none" stroke="#000000" d="M2447,-122.0225C2447,-139.3734 2447,-163 2447,-163 2447,-163 2142.8846,-163 2142.8846,-163"/>
<polygon fill="#000000" stroke="#000000" points="2142.8846,-159.5001 2132.8846,-163 2142.8845,-166.5001 2142.8846,-159.5001"/>
</g>
<!-- DeviceManagmentComponent -->
<g id="node4" class="node">
<title>DeviceManagmentComponent</title>
<polygon fill="#ffffb3" stroke="#000000" points="2368.8431,-122 2181.1569,-122 2181.1569,-86 2368.8431,-86 2368.8431,-122"/>
<text text-anchor="middle" x="2275" y="-99.8" font-family="Times,serif" font-size="14.00" fill="#000000">DeviceManagmentComponent</text>
</g>
<!-- DeviceManagmentComponent&#45;&gt;AppModule -->
<g id="edge4" class="edge">
<title>DeviceManagmentComponent&#45;&gt;AppModule</title>
<path fill="none" stroke="#000000" d="M2275,-122.0352C2275,-138.7344 2275,-161 2275,-161 2275,-161 2142.7524,-161 2142.7524,-161"/>
<polygon fill="#000000" stroke="#000000" points="2142.7525,-157.5001 2132.7524,-161 2142.7524,-164.5001 2142.7525,-157.5001"/>
</g>
<!-- FileAddingComponent -->
<g id="node5" class="node">
<title>FileAddingComponent</title>
<polygon fill="#ffffb3" stroke="#000000" points="2163.608,-122 2018.392,-122 2018.392,-86 2163.608,-86 2163.608,-122"/>
<text text-anchor="middle" x="2091" y="-99.8" font-family="Times,serif" font-size="14.00" fill="#000000">FileAddingComponent</text>
</g>
<!-- FileAddingComponent&#45;&gt;AppModule -->
<g id="edge5" class="edge">
<title>FileAddingComponent&#45;&gt;AppModule</title>
<path fill="none" stroke="#000000" d="M2091,-122.1061C2091,-122.1061 2091,-140.991 2091,-140.991"/>
<polygon fill="#000000" stroke="#000000" points="2087.5001,-140.9909 2091,-150.991 2094.5001,-140.991 2087.5001,-140.9909"/>
</g>
<!-- GroupAddingComponent -->
<g id="node6" class="node">
<title>GroupAddingComponent</title>
<polygon fill="#ffffb3" stroke="#000000" points="2000.5968,-122 1841.4032,-122 1841.4032,-86 2000.5968,-86 2000.5968,-122"/>
<text text-anchor="middle" x="1921" y="-99.8" font-family="Times,serif" font-size="14.00" fill="#000000">GroupAddingComponent</text>
</g>
<!-- GroupAddingComponent&#45;&gt;AppModule -->
<g id="edge6" class="edge">
<title>GroupAddingComponent&#45;&gt;AppModule</title>
<path fill="none" stroke="#000000" d="M1921,-122.0511C1921,-136.373 1921,-154 1921,-154 1921,-154 2038.9775,-154 2038.9775,-154"/>
<polygon fill="#000000" stroke="#000000" points="2038.9776,-157.5001 2048.9775,-154 2038.9775,-150.5001 2038.9776,-157.5001"/>
</g>
<!-- GroupComponent -->
<g id="node7" class="node">
<title>GroupComponent</title>
<polygon fill="#ffffb3" stroke="#000000" points="1823.5996,-122 1706.4004,-122 1706.4004,-86 1823.5996,-86 1823.5996,-122"/>
<text text-anchor="middle" x="1765" y="-99.8" font-family="Times,serif" font-size="14.00" fill="#000000">GroupComponent</text>
</g>
<!-- GroupComponent&#45;&gt;AppModule -->
<g id="edge7" class="edge">
<title>GroupComponent&#45;&gt;AppModule</title>
<path fill="none" stroke="#000000" d="M1765,-122.2396C1765,-137.5706 1765,-157 1765,-157 1765,-157 2039.0486,-157 2039.0486,-157"/>
<polygon fill="#000000" stroke="#000000" points="2039.0486,-160.5001 2049.0486,-157 2039.0486,-153.5001 2039.0486,-160.5001"/>
</g>
<!-- GroupManagmentComponent -->
<g id="node8" class="node">
<title>GroupManagmentComponent</title>
<polygon fill="#ffffb3" stroke="#000000" points="1687.9692,-122 1504.0308,-122 1504.0308,-86 1687.9692,-86 1687.9692,-122"/>
<text text-anchor="middle" x="1596" y="-99.8" font-family="Times,serif" font-size="14.00" fill="#000000">GroupManagmentComponent</text>
</g>
<!-- GroupManagmentComponent&#45;&gt;AppModule -->
<g id="edge8" class="edge">
<title>GroupManagmentComponent&#45;&gt;AppModule</title>
<path fill="none" stroke="#000000" d="M1596,-122.027C1596,-138.3976 1596,-160 1596,-160 1596,-160 2039.2232,-160 2039.2232,-160"/>
<polygon fill="#000000" stroke="#000000" points="2039.2232,-163.5001 2049.2232,-160 2039.2232,-156.5001 2039.2232,-163.5001"/>
</g>
<!-- GroupUsersPipe -->
<g id="node9" class="node">
<title>GroupUsersPipe</title>
<polygon fill="#ffffb3" stroke="#000000" points="1486.027,-122 1377.973,-122 1377.973,-86 1486.027,-86 1486.027,-122"/>
<text text-anchor="middle" x="1432" y="-99.8" font-family="Times,serif" font-size="14.00" fill="#000000">GroupUsersPipe</text>
</g>
<!-- GroupUsersPipe&#45;&gt;AppModule -->
<g id="edge9" class="edge">
<title>GroupUsersPipe&#45;&gt;AppModule</title>
<path fill="none" stroke="#000000" d="M1432,-122.0225C1432,-139.3734 1432,-163 1432,-163 1432,-163 2039.2767,-163 2039.2767,-163"/>
<polygon fill="#000000" stroke="#000000" points="2039.2767,-166.5001 2049.2767,-163 2039.2766,-159.5001 2039.2767,-166.5001"/>
</g>
<!-- HeaderComponent -->
<g id="node10" class="node">
<title>HeaderComponent</title>
<polygon fill="#ffffb3" stroke="#000000" points="3837.7437,-122 3716.2563,-122 3716.2563,-86 3837.7437,-86 3837.7437,-122"/>
<text text-anchor="middle" x="3777" y="-99.8" font-family="Times,serif" font-size="14.00" fill="#000000">HeaderComponent</text>
</g>
<!-- HeaderComponent&#45;&gt;AppModule -->
<g id="edge10" class="edge">
<title>HeaderComponent&#45;&gt;AppModule</title>
<path fill="none" stroke="#000000" d="M3756.7094,-122.3228C3756.7094,-145.6602 3756.7094,-183 3756.7094,-183 3756.7094,-183 2143.0082,-183 2143.0082,-183"/>
<polygon fill="#000000" stroke="#000000" points="2143.0082,-179.5001 2133.0082,-183 2143.0081,-186.5001 2143.0082,-179.5001"/>
</g>
<!-- SharedModule -->
<g id="node26" class="node">
<title>SharedModule</title>
<polygon fill="#8dd3c7" stroke="#000000" points="4122.4231,-187 4119.4231,-191 4098.4231,-191 4095.4231,-187 4023.5769,-187 4023.5769,-151 4122.4231,-151 4122.4231,-187"/>
<text text-anchor="middle" x="4073" y="-164.8" font-family="Times,serif" font-size="14.00" fill="#000000">SharedModule</text>
</g>
<!-- HeaderComponent&#45;&gt;SharedModule -->
<g id="edge25" class="edge">
<title>HeaderComponent&#45;&gt;SharedModule</title>
<path fill="none" stroke="#000000" d="M3797.2906,-122.0511C3797.2906,-136.373 3797.2906,-154 3797.2906,-154 3797.2906,-154 4013.7087,-154 4013.7087,-154"/>
<polygon fill="#000000" stroke="#000000" points="4013.7087,-157.5001 4023.7087,-154 4013.7086,-150.5001 4013.7087,-157.5001"/>
</g>
<!-- LandingComponent -->
<g id="node11" class="node">
<title>LandingComponent</title>
<polygon fill="#ffffb3" stroke="#000000" points="3697.9902,-122 3570.0098,-122 3570.0098,-86 3697.9902,-86 3697.9902,-122"/>
<text text-anchor="middle" x="3634" y="-99.8" font-family="Times,serif" font-size="14.00" fill="#000000">LandingComponent</text>
</g>
<!-- LandingComponent&#45;&gt;AppModule -->
<g id="edge11" class="edge">
<title>LandingComponent&#45;&gt;AppModule</title>
<path fill="none" stroke="#000000" d="M3612.6683,-122.0109C3612.6683,-144.4852 3612.6683,-180 3612.6683,-180 3612.6683,-180 2142.8873,-180 2142.8873,-180"/>
<polygon fill="#000000" stroke="#000000" points="2142.8874,-176.5001 2132.8873,-180 2142.8873,-183.5001 2142.8874,-176.5001"/>
</g>
<!-- LandingComponent&#45;&gt;SharedModule -->
<g id="edge26" class="edge">
<title>LandingComponent&#45;&gt;SharedModule</title>
<path fill="none" stroke="#000000" d="M3655.3317,-122.1871C3655.3317,-137.1824 3655.3317,-156 3655.3317,-156 3655.3317,-156 4013.4478,-156 4013.4478,-156"/>
<polygon fill="#000000" stroke="#000000" points="4013.4478,-159.5001 4023.4478,-156 4013.4478,-152.5001 4013.4478,-159.5001"/>
</g>
<!-- LoggedInComponent -->
<g id="node12" class="node">
<title>LoggedInComponent</title>
<polygon fill="#ffffb3" stroke="#000000" points="875.7604,-122 740.2396,-122 740.2396,-86 875.7604,-86 875.7604,-122"/>
<text text-anchor="middle" x="808" y="-99.8" font-family="Times,serif" font-size="14.00" fill="#000000">LoggedInComponent</text>
</g>
<!-- LoggedInComponent&#45;&gt;AppModule -->
<g id="edge12" class="edge">
<title>LoggedInComponent&#45;&gt;AppModule</title>
<path fill="none" stroke="#000000" d="M808,-122.2228C808,-142.3652 808,-172 808,-172 808,-172 2039.0417,-172 2039.0417,-172"/>
<polygon fill="#000000" stroke="#000000" points="2039.0418,-175.5001 2049.0417,-172 2039.0417,-168.5001 2039.0418,-175.5001"/>
</g>
<!-- LoggedInHeaderComponent -->
<g id="node13" class="node">
<title>LoggedInHeaderComponent</title>
<polygon fill="#ffffb3" stroke="#000000" points="722.1713,-122 545.8287,-122 545.8287,-86 722.1713,-86 722.1713,-122"/>
<text text-anchor="middle" x="634" y="-99.8" font-family="Times,serif" font-size="14.00" fill="#000000">LoggedInHeaderComponent</text>
</g>
<!-- LoggedInHeaderComponent&#45;&gt;AppModule -->
<g id="edge13" class="edge">
<title>LoggedInHeaderComponent&#45;&gt;AppModule</title>
<path fill="none" stroke="#000000" d="M634,-122.2843C634,-143.3211 634,-175 634,-175 634,-175 2038.9661,-175 2038.9661,-175"/>
<polygon fill="#000000" stroke="#000000" points="2038.9662,-178.5001 2048.9661,-175 2038.9661,-171.5001 2038.9662,-178.5001"/>
</g>
<!-- SidebarComponent -->
<g id="node14" class="node">
<title>SidebarComponent</title>
<polygon fill="#ffffb3" stroke="#000000" points="528.0954,-122 403.9046,-122 403.9046,-86 528.0954,-86 528.0954,-122"/>
<text text-anchor="middle" x="466" y="-99.8" font-family="Times,serif" font-size="14.00" fill="#000000">SidebarComponent</text>
</g>
<!-- SidebarComponent&#45;&gt;AppModule -->
<g id="edge14" class="edge">
<title>SidebarComponent&#45;&gt;AppModule</title>
<path fill="none" stroke="#000000" d="M466,-122.2921C466,-144.2057 466,-178 466,-178 466,-178 2039.1982,-178 2039.1982,-178"/>
<polygon fill="#000000" stroke="#000000" points="2039.1983,-181.5001 2049.1982,-178 2039.1982,-174.5001 2039.1983,-181.5001"/>
</g>
<!-- SignInComponent -->
<g id="node15" class="node">
<title>SignInComponent</title>
<polygon fill="#ffffb3" stroke="#000000" points="3552.1667,-122 3433.8333,-122 3433.8333,-86 3552.1667,-86 3552.1667,-122"/>
<text text-anchor="middle" x="3493" y="-99.8" font-family="Times,serif" font-size="14.00" fill="#000000">SignInComponent</text>
</g>
<!-- SignInComponent&#45;&gt;AppModule -->
<g id="edge15" class="edge">
<title>SignInComponent&#45;&gt;AppModule</title>
<path fill="none" stroke="#000000" d="M3473.2223,-122.2921C3473.2223,-144.2057 3473.2223,-178 3473.2223,-178 3473.2223,-178 2142.7437,-178 2142.7437,-178"/>
<polygon fill="#000000" stroke="#000000" points="2142.7438,-174.5001 2132.7437,-178 2142.7437,-181.5001 2142.7438,-174.5001"/>
</g>
<!-- SignInComponent&#45;&gt;SharedModule -->
<g id="edge27" class="edge">
<title>SignInComponent&#45;&gt;SharedModule</title>
<path fill="none" stroke="#000000" d="M3512.7777,-122.0091C3512.7777,-138.0494 3512.7777,-159 3512.7777,-159 3512.7777,-159 4013.775,-159 4013.775,-159"/>
<polygon fill="#000000" stroke="#000000" points="4013.775,-162.5001 4023.775,-159 4013.775,-155.5001 4013.775,-162.5001"/>
</g>
<!-- SignUpComponent -->
<g id="node16" class="node">
<title>SignUpComponent</title>
<polygon fill="#ffffb3" stroke="#000000" points="3980.1123,-122 3855.8877,-122 3855.8877,-86 3980.1123,-86 3980.1123,-122"/>
<text text-anchor="middle" x="3918" y="-99.8" font-family="Times,serif" font-size="14.00" fill="#000000">SignUpComponent</text>
</g>
<!-- SignUpComponent&#45;&gt;AppModule -->
<g id="edge16" class="edge">
<title>SignUpComponent&#45;&gt;AppModule</title>
<path fill="none" stroke="#000000" d="M3918,-122.3802C3918,-146.2785 3918,-185 3918,-185 3918,-185 2143.0309,-185 2143.0309,-185"/>
<polygon fill="#000000" stroke="#000000" points="2143.031,-181.5001 2133.0309,-185 2143.0309,-188.5001 2143.031,-181.5001"/>
</g>
<!-- SignUpComponent&#45;&gt;SharedModule -->
<g id="edge28" class="edge">
<title>SignUpComponent&#45;&gt;SharedModule</title>
<path fill="none" stroke="#000000" d="M3980.1513,-104C4023.2735,-104 4073,-104 4073,-104 4073,-104 4073,-140.8939 4073,-140.8939"/>
<polygon fill="#000000" stroke="#000000" points="4069.5001,-140.8938 4073,-150.8939 4076.5001,-140.8939 4069.5001,-140.8938"/>
</g>
<!-- TestingDirective -->
<g id="node17" class="node">
<title>TestingDirective</title>
<polygon fill="#ffffb3" stroke="#000000" points="2940.0758,-122 2829.9242,-122 2829.9242,-86 2940.0758,-86 2940.0758,-122"/>
<text text-anchor="middle" x="2885" y="-99.8" font-family="Times,serif" font-size="14.00" fill="#000000">TestingDirective</text>
</g>
<!-- TestingDirective&#45;&gt;AppModule -->
<g id="edge17" class="edge">
<title>TestingDirective&#45;&gt;AppModule</title>
<path fill="none" stroke="#000000" d="M2885,-122.308C2885,-142.1455 2885,-171 2885,-171 2885,-171 2142.8492,-171 2142.8492,-171"/>
<polygon fill="#000000" stroke="#000000" points="2142.8493,-167.5001 2132.8492,-171 2142.8492,-174.5001 2142.8493,-167.5001"/>
</g>
<!-- UploadFileToDeviceComponent -->
<g id="node18" class="node">
<title>UploadFileToDeviceComponent</title>
<polygon fill="#ffffb3" stroke="#000000" points="1359.5168,-122 1160.4832,-122 1160.4832,-86 1359.5168,-86 1359.5168,-122"/>
<text text-anchor="middle" x="1260" y="-99.8" font-family="Times,serif" font-size="14.00" fill="#000000">UploadFileToDeviceComponent</text>
</g>
<!-- UploadFileToDeviceComponent&#45;&gt;AppModule -->
<g id="edge18" class="edge">
<title>UploadFileToDeviceComponent&#45;&gt;AppModule</title>
<path fill="none" stroke="#000000" d="M1260,-122.2667C1260,-140.5552 1260,-166 1260,-166 1260,-166 2039.2211,-166 2039.2211,-166"/>
<polygon fill="#000000" stroke="#000000" points="2039.2211,-169.5001 2049.2211,-166 2039.2211,-162.5001 2039.2211,-169.5001"/>
</g>
<!-- UploadFileToDeviceListRowComponent -->
<g id="node19" class="node">
<title>UploadFileToDeviceListRowComponent</title>
<polygon fill="#ffffb3" stroke="#000000" points="1141.7379,-122 894.2621,-122 894.2621,-86 1141.7379,-86 1141.7379,-122"/>
<text text-anchor="middle" x="1018" y="-99.8" font-family="Times,serif" font-size="14.00" fill="#000000">UploadFileToDeviceListRowComponent</text>
</g>
<!-- UploadFileToDeviceListRowComponent&#45;&gt;AppModule -->
<g id="edge19" class="edge">
<title>UploadFileToDeviceListRowComponent&#45;&gt;AppModule</title>
<path fill="none" stroke="#000000" d="M1018,-122.1061C1018,-141.3391 1018,-169 1018,-169 1018,-169 2039.2664,-169 2039.2664,-169"/>
<polygon fill="#000000" stroke="#000000" points="2039.2665,-172.5001 2049.2664,-169 2039.2664,-165.5001 2039.2665,-172.5001"/>
</g>
<!-- UploadFileToGroupComponent -->
<g id="node20" class="node">
<title>UploadFileToGroupComponent</title>
<polygon fill="#ffffb3" stroke="#000000" points="3415.6427,-122 3220.3573,-122 3220.3573,-86 3415.6427,-86 3415.6427,-122"/>
<text text-anchor="middle" x="3318" y="-99.8" font-family="Times,serif" font-size="14.00" fill="#000000">UploadFileToGroupComponent</text>
</g>
<!-- UploadFileToGroupComponent&#45;&gt;AppModule -->
<g id="edge20" class="edge">
<title>UploadFileToGroupComponent&#45;&gt;AppModule</title>
<path fill="none" stroke="#000000" d="M3318,-122.2843C3318,-143.3211 3318,-175 3318,-175 3318,-175 2142.8812,-175 2142.8812,-175"/>
<polygon fill="#000000" stroke="#000000" points="2142.8812,-171.5001 2132.8812,-175 2142.8811,-178.5001 2142.8812,-171.5001"/>
</g>
<!-- UploadFileToGroupListRowComponent -->
<g id="node21" class="node">
<title>UploadFileToGroupListRowComponent</title>
<polygon fill="#ffffb3" stroke="#000000" points="3201.864,-122 2958.136,-122 2958.136,-86 3201.864,-86 3201.864,-122"/>
<text text-anchor="middle" x="3080" y="-99.8" font-family="Times,serif" font-size="14.00" fill="#000000">UploadFileToGroupListRowComponent</text>
</g>
<!-- UploadFileToGroupListRowComponent&#45;&gt;AppModule -->
<g id="edge21" class="edge">
<title>UploadFileToGroupListRowComponent&#45;&gt;AppModule</title>
<path fill="none" stroke="#000000" d="M3080,-122.1289C3080,-142.5724 3080,-173 3080,-173 3080,-173 2142.8644,-173 2142.8644,-173"/>
<polygon fill="#000000" stroke="#000000" points="2142.8644,-169.5001 2132.8644,-173 2142.8644,-176.5001 2142.8644,-169.5001"/>
</g>
<!-- AppComponent  -->
<g id="node24" class="node">
<title>AppComponent </title>
<polygon fill="#80b1d3" stroke="#000000" points="2145.439,-252 2036.561,-252 2036.561,-216 2145.439,-216 2145.439,-252"/>
<text text-anchor="middle" x="2091" y="-229.8" font-family="Times,serif" font-size="14.00" fill="#000000">AppComponent </text>
</g>
<!-- AppModule&#45;&gt;AppComponent  -->
<g id="edge23" class="edge">
<title>AppModule&#45;&gt;AppComponent </title>
<path fill="none" stroke="#000000" stroke-dasharray="1,5" d="M2091,-187.1061C2091,-187.1061 2091,-205.991 2091,-205.991"/>
<polygon fill="#000000" stroke="#000000" points="2087.5001,-205.9909 2091,-215.991 2094.5001,-205.991 2087.5001,-205.9909"/>
</g>
<!-- AppRoutingModule -->
<g id="node23" class="node">
<title>AppRoutingModule</title>
<polygon fill="#8dd3c7" stroke="#000000" points="380.2744,-122 377.2744,-126 356.2744,-126 353.2744,-122 251.7256,-122 251.7256,-86 380.2744,-86 380.2744,-122"/>
<text text-anchor="middle" x="316" y="-99.8" font-family="Times,serif" font-size="14.00" fill="#000000">AppRoutingModule</text>
</g>
<!-- AppRoutingModule&#45;&gt;AppModule -->
<g id="edge22" class="edge">
<title>AppRoutingModule&#45;&gt;AppModule</title>
<path fill="none" stroke="#000000" d="M316,-122.2479C316,-145.0179 316,-181 316,-181 316,-181 2039.3066,-181 2039.3066,-181"/>
<polygon fill="#000000" stroke="#000000" points="2039.3066,-184.5001 2049.3066,-181 2039.3065,-177.5001 2039.3066,-184.5001"/>
</g>
<!-- AuthInterceptorService -->
<g id="node25" class="node">
<title>AuthInterceptorService</title>
<ellipse fill="#fdb462" stroke="#000000" cx="126" cy="-104" rx="101.8225" ry="18"/>
<text text-anchor="middle" x="126" y="-99.8" font-family="Times,serif" font-size="14.00" fill="#000000">AuthInterceptorService</text>
</g>
<!-- AuthInterceptorService&#45;&gt;AppModule -->
<g id="edge24" class="edge">
<title>AuthInterceptorService&#45;&gt;AppModule</title>
<path fill="none" stroke="#000000" d="M126,-122.1532C126,-145.7566 126,-184 126,-184 126,-184 2039.0491,-184 2039.0491,-184"/>
<polygon fill="#000000" stroke="#000000" points="2039.0491,-187.5001 2049.0491,-184 2039.0491,-180.5001 2039.0491,-187.5001"/>
</g>
<!-- HeaderComponent  -->
<g id="node27" class="node">
<title>HeaderComponent </title>
<polygon fill="#fb8072" stroke="#000000" points="4294.7436,-252 4169.2564,-252 4169.2564,-216 4294.7436,-216 4294.7436,-252"/>
<text text-anchor="middle" x="4232" y="-229.8" font-family="Times,serif" font-size="14.00" fill="#000000">HeaderComponent </text>
</g>
<!-- SharedModule&#45;&gt;HeaderComponent  -->
<g id="edge29" class="edge">
<title>SharedModule&#45;&gt;HeaderComponent </title>
<path fill="none" stroke="#000000" stroke-dasharray="5,2" d="M4122.437,-178C4169.1118,-178 4232,-178 4232,-178 4232,-178 4232,-205.973 4232,-205.973"/>
<polygon fill="#000000" stroke="#000000" points="4228.5001,-205.973 4232,-215.973 4235.5001,-205.973 4228.5001,-205.973"/>
</g>
<!-- LandingComponent  -->
<g id="node28" class="node">
<title>LandingComponent </title>
<polygon fill="#fb8072" stroke="#000000" points="4151.9911,-252 4020.0089,-252 4020.0089,-216 4151.9911,-216 4151.9911,-252"/>
<text text-anchor="middle" x="4086" y="-229.8" font-family="Times,serif" font-size="14.00" fill="#000000">LandingComponent </text>
</g>
<!-- SharedModule&#45;&gt;LandingComponent  -->
<g id="edge30" class="edge">
<title>SharedModule&#45;&gt;LandingComponent </title>
<path fill="none" stroke="#000000" stroke-dasharray="5,2" d="M4073,-187.1061C4073,-187.1061 4073,-205.991 4073,-205.991"/>
<polygon fill="#000000" stroke="#000000" points="4069.5001,-205.9909 4073,-215.991 4076.5001,-205.991 4069.5001,-205.9909"/>
</g>
<!-- SignInComponent  -->
<g id="node29" class="node">
<title>SignInComponent </title>
<polygon fill="#fb8072" stroke="#000000" points="4580.1663,-252 4457.8337,-252 4457.8337,-216 4580.1663,-216 4580.1663,-252"/>
<text text-anchor="middle" x="4519" y="-229.8" font-family="Times,serif" font-size="14.00" fill="#000000">SignInComponent </text>
</g>
<!-- SharedModule&#45;&gt;SignInComponent  -->
<g id="edge31" class="edge">
<title>SharedModule&#45;&gt;SignInComponent </title>
<path fill="none" stroke="#000000" stroke-dasharray="5,2" d="M4122.4339,-160C4238.5555,-160 4519,-160 4519,-160 4519,-160 4519,-205.7079 4519,-205.7079"/>
<polygon fill="#000000" stroke="#000000" points="4515.5001,-205.7078 4519,-215.7079 4522.5001,-205.7079 4515.5001,-205.7078"/>
</g>
<!-- SignUpComponent  -->
<g id="node30" class="node">
<title>SignUpComponent </title>
<polygon fill="#fb8072" stroke="#000000" points="4439.6128,-252 4312.3872,-252 4312.3872,-216 4439.6128,-216 4439.6128,-252"/>
<text text-anchor="middle" x="4376" y="-229.8" font-family="Times,serif" font-size="14.00" fill="#000000">SignUpComponent </text>
</g>
<!-- SharedModule&#45;&gt;SignUpComponent  -->
<g id="edge32" class="edge">
<title>SharedModule&#45;&gt;SignUpComponent </title>
<path fill="none" stroke="#000000" stroke-dasharray="5,2" d="M4122.3565,-169C4208.2152,-169 4376,-169 4376,-169 4376,-169 4376,-205.8939 4376,-205.8939"/>
<polygon fill="#000000" stroke="#000000" points="4372.5001,-205.8938 4376,-215.8939 4379.5001,-205.8939 4372.5001,-205.8938"/>
</g>
</g>
</svg>
